<svg width="11" height="19" viewBox="0 0 11 19" fill="none" xmlns="http://www.w3.org/2000/svg">
<path d="M7.55071 1.22067C7.87697 0.88809 8.19254 0.562119 8.51201 0.223961C8.54418 0.157864 8.56792 0.0987131 8.65172 0.0952112C8.69708 0.0922262 8.72984 0.0886499 8.76193 0.0511972C8.78525 0.0365793 8.79763 0.027529 8.82162 0.0173933C8.90146 0.0114614 8.9701 0.0072214 9.05343 -1.73717e-06C9.31185 0.0104162 9.50075 0.130406 9.66838 0.311926C9.9973 0.668112 10.3348 1.01556 10.6695 1.36583C10.782 1.48353 10.8793 1.61117 10.9385 1.78253C11.0295 1.9124 10.9934 2.04744 10.9906 2.19339C10.9371 2.36982 10.8628 2.51611 10.7344 2.64402C10.6501 2.72663 10.5775 2.80173 10.4983 2.88856C10.383 3.00607 10.2784 3.11625 10.1664 3.23689C10.0832 3.32445 10.0015 3.39592 9.93672 3.50122C9.81096 3.60762 9.73423 3.74642 9.609 3.85326C9.51621 3.91408 9.44523 3.98024 9.38764 4.0791C9.27362 4.22189 9.14915 4.33641 9.02725 4.47162C8.95968 4.54005 8.90091 4.5994 8.83656 4.67112C8.72295 4.78806 8.61902 4.89697 8.50795 5.0166C8.42885 5.09727 8.35878 5.1692 8.28289 5.25328C8.16386 5.37729 8.04872 5.48746 7.94869 5.62983C7.87347 5.68507 7.81102 5.73573 7.76485 5.82181C7.65102 5.96427 7.52678 6.07857 7.40512 6.21365C7.33694 6.2828 7.27754 6.34277 7.21266 6.41564C7.0895 6.54331 6.97608 6.66258 6.85452 6.79203C6.7976 6.84984 6.749 6.89767 6.69532 6.95892C6.55757 7.10872 6.41581 7.2361 6.29245 7.40015C6.23654 7.45443 6.18121 7.49099 6.14333 7.56346C6.0175 7.71845 5.88132 7.8452 5.74762 7.99271C5.69133 8.05004 5.64319 8.09749 5.58992 8.15819C5.45547 8.29799 5.33073 8.42939 5.19749 8.57057C5.15261 8.61663 5.11546 8.65207 5.07296 8.70078C4.91507 8.87041 4.75701 9.02121 4.60851 9.20053C4.26619 9.5346 4.29711 9.46185 4.58691 9.77635C4.60372 9.79459 4.62107 9.81225 4.6476 9.83907C4.66881 9.86066 4.68067 9.87326 4.70144 9.89531C4.86938 10.0753 5.03126 10.2429 5.20115 10.4208C5.22236 10.4423 5.23423 10.4549 5.25502 10.4769C5.42335 10.6567 5.58513 10.8246 5.7553 11.0027C5.77653 11.0246 5.78822 11.0375 5.80827 11.0607C5.97312 11.2589 6.13067 11.4459 6.31348 11.6263C6.49939 11.8258 6.67933 12.0126 6.86797 12.2091C7.05415 12.4077 7.23341 12.5949 7.42215 12.7908C7.62192 12.9743 7.75097 13.2102 7.96166 13.3828C8.13809 13.591 8.31681 13.778 8.51473 13.9638C8.6932 14.173 8.87253 14.3624 9.07304 14.549C9.59216 15.1671 10.1503 15.7264 10.6924 16.302C10.8449 16.464 10.9789 16.6383 10.9939 16.895C11.0017 17.0703 10.9955 17.229 10.9168 17.3895C10.8689 17.4889 10.7962 17.5474 10.7267 17.6267C10.6084 17.7446 10.5032 17.857 10.3894 17.9787C10.3099 18.0591 10.2399 18.1313 10.1638 18.2152C10.0431 18.3266 9.95675 18.4582 9.81516 18.5423C9.73105 18.6145 9.65934 18.6852 9.58266 18.7678C9.43279 18.8918 9.27659 18.9758 9.08118 19C8.87464 18.9795 8.68451 18.9434 8.52784 18.7809C8.47566 18.7274 8.43521 18.6799 8.38384 18.6284C8.20119 18.54 8.10062 18.3706 7.95373 18.2367C7.89898 18.1775 7.85374 18.1268 7.7958 18.0708C7.66238 17.9295 7.53716 17.7982 7.40231 17.6583C7.34724 17.5984 7.30173 17.5473 7.24339 17.4909C7.10987 17.3493 6.98449 17.2179 6.84952 17.0778C6.79444 17.018 6.74893 16.9668 6.69058 16.9104C6.55707 16.7688 6.43168 16.6374 6.29672 16.4973C6.24164 16.4375 6.19613 16.3864 6.13779 16.3299C6.00434 16.1884 5.87899 16.0571 5.74412 15.9171C5.68909 15.8573 5.64363 15.8061 5.58533 15.7497C5.45143 15.6077 5.32571 15.4758 5.19022 15.3354C5.13505 15.2757 5.08946 15.2246 5.0311 15.1683C4.89242 15.0332 4.78289 14.8868 4.64406 14.7518C4.58849 14.7031 4.54801 14.6577 4.50472 14.5968C4.38993 14.437 4.25266 14.318 4.12158 14.1746C4.05559 14.1025 3.99829 14.0398 3.9287 13.9713C3.80619 13.8408 3.69175 13.7206 3.56714 13.5923C3.51361 13.5314 3.46098 13.489 3.40374 13.4325C3.26987 13.2671 3.12493 13.1315 2.98086 12.9765C2.937 12.9295 2.90332 12.8905 2.85706 12.846C2.71168 12.6923 2.57451 12.5486 2.42803 12.3961C2.38419 12.3491 2.35052 12.3101 2.30427 12.2656C2.1589 12.1118 2.02171 11.9682 1.87523 11.8156C1.83138 11.7686 1.79771 11.7296 1.75147 11.6851C1.60609 11.5314 1.46891 11.3877 1.32242 11.2351C1.27858 11.1881 1.24491 11.1492 1.19868 11.1047C1.05344 10.951 0.91632 10.8075 0.770034 10.655C0.726479 10.6083 0.693125 10.5695 0.647296 10.5253C0.497852 10.3662 0.355155 10.2186 0.205015 10.0595C0.167716 10.0135 0.146097 9.97278 0.116167 9.92056C0.0310909 9.73759 -0.0359448 9.56501 0.0213376 9.35553C0.0388471 9.20311 0.106346 9.08899 0.183068 8.96392C0.244474 8.87896 0.308861 8.81638 0.383936 8.74584C0.527988 8.64034 0.639975 8.5198 0.745122 8.37314C0.805259 8.29187 0.867228 8.23094 0.940314 8.16291C1.08179 8.05841 1.19207 7.93939 1.29626 7.79537C1.35408 7.71479 1.418 7.65812 1.4827 7.58431C1.60913 7.45493 1.72482 7.3327 1.84848 7.20051C1.91637 7.1315 1.97557 7.07168 2.04021 6.99896C2.16331 6.87117 2.2769 6.752 2.39834 6.62237C2.46736 6.5528 2.52724 6.49233 2.59258 6.41888C2.71591 6.291 2.82956 6.17165 2.95113 6.04192C3.02016 5.97234 3.08004 5.91186 3.14539 5.8384C3.26871 5.71052 3.38237 5.59118 3.50394 5.46145C3.57296 5.39187 3.63283 5.3314 3.69818 5.25796C3.82134 5.1303 3.93475 5.01108 4.05615 4.88171C4.12362 4.81278 4.18432 4.75526 4.24476 4.67952C4.35105 4.52993 4.49811 4.44215 4.61089 4.29927C4.67786 4.23052 4.7388 4.17357 4.79578 4.09477C4.92894 3.97214 5.04277 3.84769 5.15764 3.70633C5.23502 3.65021 5.29303 3.59148 5.34922 3.51212C5.63777 3.15774 5.96002 2.85593 6.26728 2.52018C6.32534 2.46227 6.37251 2.41161 6.43342 2.35697C6.58683 2.24041 6.70821 2.10846 6.82422 1.95224C6.87178 1.88445 6.92301 1.83806 6.97691 1.77611C7.1128 1.63571 7.23826 1.50317 7.37232 1.36097C7.42862 1.3024 7.47656 1.25388 7.55071 1.22067Z" fill="black"/>
</svg>
