<svg width="74" height="74" viewBox="0 0 74 74" fill="none" xmlns="http://www.w3.org/2000/svg">
<g clip-path="url(#clip0_8_2191)">
<path d="M14.6744 0.144821C15.2742 1.27003 14.9871 2.46258 15.0011 3.62534C15.0077 4.17471 14.5225 4.19947 14.0932 4.19916C12.143 4.19776 10.1928 4.19771 8.24258 4.19964C5.79752 4.20206 4.0748 5.9022 4.05121 8.36613C4.03228 10.3441 4.0489 12.3224 4.04567 14.3005C4.04423 15.1896 3.9012 15.3548 2.99368 15.3411C2.08421 15.3274 1.17568 15.2506 0.205633 15.2035C0.14452 12.0648 0.14452 8.92416 0.194871 5.70613C0.312866 5.53537 0.408166 5.45153 0.444106 5.34717C1.3225 2.79656 3.10349 1.20837 5.64406 0.416282C5.7553 0.381603 5.83264 0.237795 5.92577 0.144821C8.81942 0.144821 11.7131 0.144821 14.6744 0.144821Z" fill="#201D1D" fill-opacity="0.87"/>
<path d="M60.0995 4.06044C59.8749 3.887 59.4608 3.71785 59.4567 3.53941C59.4321 2.44944 59.5006 1.35737 59.5424 0.20541C62.585 0.144828 65.6232 0.144828 68.7387 0.195244C68.954 0.332162 69.0819 0.44634 69.2315 0.501013C71.4434 1.30928 72.9584 2.81152 73.776 5.02742C73.8422 5.2069 74.019 5.3454 74.1445 5.50295C74.1445 8.64361 74.1445 11.7843 74.1445 14.9928C73.2849 15.109 72.4258 15.1844 71.5656 15.199C70.3396 15.2199 70.1124 14.9747 70.1089 13.7136C70.1033 11.7132 70.1156 9.71271 70.1027 7.71238C70.091 5.88175 68.7089 4.38461 66.7572 4.15289C64.4628 4.10319 62.2811 4.08182 60.0995 4.06044Z" fill="#201D1D" fill-opacity="0.87"/>
<path d="M59.4701 74.1448C59.3543 73.26 59.2801 72.3756 59.2648 71.4902C59.2451 70.3579 59.5138 70.1005 60.6719 70.0949C62.6191 70.0853 64.5663 70.094 66.5135 70.0912C68.4008 70.0886 70.091 68.3994 70.0963 66.5053C70.1018 64.5543 70.0929 62.6033 70.1002 60.6523C70.1039 59.6688 70.2574 59.5058 71.2314 59.5247C72.1626 59.5428 73.093 59.6083 74.0841 59.6582C74.1445 62.5627 74.1445 65.462 74.0938 68.4404C73.9813 68.6156 73.8947 68.7038 73.8617 68.8089C73.1221 71.161 71.649 72.83 69.3369 73.7343C69.0926 73.8298 68.8798 74.006 68.6524 74.1448C65.6142 74.1448 62.576 74.1448 59.4701 74.1448Z" fill="#201D1D" fill-opacity="0.87"/>
<path d="M0.144531 59.7313C1.24393 59.6196 2.34329 59.546 3.44275 59.5445C3.98378 59.5437 4.04784 59.9909 4.04713 60.4336C4.04416 62.2885 3.97245 64.1479 4.08039 65.9965C4.13005 66.847 4.37071 67.7814 4.81949 68.4905C5.45688 69.4976 6.44422 70.1309 7.76405 70.1012C9.75865 70.0563 11.755 70.0856 13.7506 70.0915C14.7784 70.0945 15.0441 70.3479 15.025 71.3673C15.0083 72.2532 14.939 73.1381 14.8899 74.0842C11.8004 74.1448 8.71401 74.1448 5.55045 74.0944C5.33645 73.958 5.20975 73.8441 5.06135 73.7905C2.84006 72.9872 1.33268 71.473 0.511239 69.2571C0.445347 69.0793 0.269359 68.9425 0.144532 68.7867C0.144531 65.7909 0.144531 62.795 0.144531 59.7313Z" fill="#201D1D" fill-opacity="0.87"/>
<path d="M37.552 20.5637C40.2224 20.774 42.5047 21.6903 44.2386 23.7067C45.1016 24.7103 45.6337 25.8884 45.6725 27.2488C45.7736 30.8018 45.0613 34.1869 43.4933 37.3702C41.9737 40.4555 39.6486 42.8247 36.727 44.5922C33.1318 46.7672 29.1669 47.9435 25.0907 48.8117C22.8835 49.2819 20.6936 49.8329 18.4907 50.3241C17.6791 50.505 16.8413 50.5039 16.2055 49.8867C15.2939 49.0016 15.6837 47.4385 16.9345 47.0869C18.5618 46.6295 20.2174 46.2671 21.8711 45.9119C25.7155 45.0864 29.5661 44.2755 33.0875 42.4266C37.4805 40.1201 40.263 36.566 41.183 31.6422C41.4045 30.4567 41.5256 29.2473 41.6145 28.043C41.7391 26.3543 40.8308 25.3035 39.3821 24.5959C37.3662 23.6113 34.8271 24.0839 33.7449 25.5404C33.2307 26.2325 32.8929 27.1181 32.6886 27.9675C32.1388 30.2544 31.2826 32.3592 29.7262 34.1603C27.2828 36.988 24.0989 38.3791 20.5086 38.9397C18.9407 39.1846 17.3462 39.2778 15.7598 39.3752C14.982 39.423 14.2618 38.8832 14.0278 38.2447C13.785 37.582 13.9366 36.8023 14.5066 36.3968C14.8533 36.15 15.307 35.9829 15.7313 35.9298C17.2133 35.7444 18.7146 35.6949 20.1879 35.4625C22.4306 35.1087 24.4477 34.1543 26.0646 32.5635C27.5478 31.1041 28.3733 29.2119 28.7394 27.18C29.3615 23.7271 31.4735 21.7437 34.7357 20.8795C35.618 20.6458 36.5663 20.6621 37.552 20.5637Z" fill="#3B5998"/>
<path d="M26.3413 26.4206C25.5634 30.3059 23.4929 32.7003 19.6184 33.4108C18.426 33.6295 17.1564 33.5027 15.9289 33.4251C15.1594 33.3765 14.6088 32.6409 14.5977 31.9053C14.5832 30.9336 15.018 30.2908 15.8973 30.1365C16.3673 30.054 16.8635 30.1196 17.3479 30.1215C20.1777 30.1327 21.5371 29.0929 22.2467 26.2044C22.9638 23.2856 24.342 20.7646 26.59 18.7805C28.705 16.9137 31.1776 15.7131 33.9944 15.3635C35.4567 15.182 36.9493 14.994 38.4088 15.094C41.676 15.3179 44.6707 16.3955 47.2659 18.4656C49.4608 20.2162 51.0274 22.3855 51.7661 25.1247C52.3104 27.143 52.2129 29.1801 52.0678 31.2377C51.9243 33.2732 51.5778 35.3203 52.2333 37.3507C52.8345 39.2132 54.3085 40.1082 55.9398 40.8148C56.7104 41.1486 57.5455 41.3435 58.3634 41.5545C59.4932 41.8459 60.0418 42.6163 59.8311 43.6938C59.6752 44.4912 58.3824 45.25 57.4891 45.012C55.2525 44.4159 53.0398 43.7571 51.1722 42.2896C49.523 40.9936 48.3769 39.3389 48.0148 37.2827C47.632 35.1084 47.8786 32.9139 48.0862 30.716C48.3642 27.7719 48.0847 24.9251 45.9907 22.5226C44.0438 20.2888 41.629 19.0667 38.7309 18.6741C35.6403 18.2555 32.825 18.8829 30.2582 20.6934C28.2485 22.1111 27.1017 24.0885 26.3413 26.4206Z" fill="#3B5998"/>
<path d="M58.3992 25.0351C58.487 26.7413 58.617 28.3838 58.6323 30.0274C58.6418 31.0459 58.4583 32.0648 58.3973 33.0857C58.3584 33.7371 58.2897 34.412 58.4181 35.0387C58.4945 35.4119 58.8641 35.8164 59.2109 36.0246C60.1182 36.5693 60.6146 37.3549 60.3571 38.0685C60.0116 39.0253 58.9452 39.6261 57.9425 39.3706C55.2361 38.681 53.8036 35.8835 54.2727 33.433C54.3885 32.8286 54.452 32.209 54.4794 31.5937C54.5487 30.036 54.7073 28.4685 54.6039 26.92C54.4454 24.5456 53.6097 22.3563 52.2277 20.4111C50.4994 17.9784 48.2643 16.1306 45.5612 14.8738C43.6279 13.975 41.6031 13.4109 39.4727 13.1616C36.3712 12.7988 33.3666 13.141 30.444 14.1974C28.4546 14.9165 26.6473 15.9623 24.9915 17.3004C22.2388 19.525 20.6746 22.4376 19.7902 25.8068C19.4009 27.2898 18.511 27.766 16.9915 27.5102C16.1001 27.3601 15.446 26.2771 15.7415 25.4017C16.2834 23.7961 16.7024 22.1293 17.426 20.6092C18.7375 17.8542 20.8129 15.702 23.2625 13.8994C26.1273 11.7913 29.3552 10.526 32.8112 9.87766C35.1379 9.44114 37.5023 9.45761 39.8736 9.68518C44.1147 10.0922 47.9727 11.537 51.3466 14.0817C54.9207 16.7774 57.4389 20.272 58.3873 24.7551C58.402 24.8246 58.3917 24.8994 58.3992 25.0351Z" fill="#3B5998"/>
<path d="M35.8249 52.1255C33.3299 52.7631 30.9063 53.4433 28.4574 54.0144C25.7554 54.6444 23.0358 55.2036 20.3117 55.7307C19.4568 55.8961 18.5596 55.8103 17.9812 54.9985C17.2107 53.9171 17.9444 52.5382 19.4338 52.2864C24.6134 51.4106 29.6983 50.1408 34.7509 48.7126C36.4218 48.2403 38.1423 47.8649 39.8653 47.6773C41.9402 47.4513 43.8629 48.2175 45.7304 49.0594C48.3269 50.2299 50.9055 51.4483 53.7188 52.0363C54.2695 52.1515 54.8237 52.2619 55.3618 52.4229C56.2747 52.696 56.7947 53.5081 56.6529 54.3721C56.5419 55.0487 55.6564 55.8232 54.8802 55.7315C53.668 55.5882 52.46 55.3542 51.2723 55.0668C48.418 54.376 45.7905 53.0817 43.1452 51.8553C41.3707 51.0326 39.6033 51.05 37.7842 51.5925C37.1547 51.7802 36.5183 51.9447 35.8249 52.1255Z" fill="#3B5998"/>
<path d="M35.8813 37.1073C33.0896 40.4123 29.4317 42.1452 25.401 43.145C22.549 43.8524 19.6499 44.3716 16.7666 44.9487C15.8377 45.1347 14.7787 44.4176 14.6036 43.5578C14.4144 42.6283 15.0176 41.7842 16.078 41.5649C18.475 41.0691 20.8953 40.6731 23.2716 40.0943C26.4389 39.3229 29.4544 38.1393 31.8233 35.789C33.6545 33.9721 34.7252 31.7322 34.9785 29.1336C35.0246 28.6606 35.0803 28.1885 35.1205 27.715C35.2002 26.777 35.9699 26.108 36.9274 26.0586C38.4307 25.9809 38.8845 26.5419 39.0868 27.2516C39.2269 27.7432 39.2168 28.3063 39.1535 28.8226C38.8847 31.0135 38.4105 33.1546 37.2732 35.0818C36.8663 35.7713 36.3725 36.4091 35.8813 37.1073Z" fill="#3B5998"/>
<path d="M48.8046 59.9974C46.9512 59.285 45.1602 58.5684 43.3402 57.9356C42.1914 57.5361 41.0052 57.0258 39.8249 56.9956C38.5636 56.9634 37.2811 57.4016 36.0224 57.6969C32.4947 58.5246 28.9857 59.4364 25.4441 60.1971C24.4893 60.4022 23.4771 60.8155 22.445 60.3508C21.6907 60.0111 21.1668 59.2935 21.2479 58.6054C21.3281 57.925 22.0262 57.2243 22.7537 57.0592C26.9515 56.1065 31.1448 55.1338 35.3465 54.1986C36.7018 53.897 38.0688 53.5836 39.4467 53.4649C41.0475 53.3271 42.5839 53.8238 44.0741 54.3793C45.969 55.0857 47.8453 55.8424 49.7379 56.5551C50.2857 56.7614 50.8573 56.9112 51.4266 57.0518C52.5917 57.3396 53.111 58.081 52.8936 59.1895C52.7382 59.9823 51.4443 60.7284 50.5492 60.5147C49.9783 60.3783 49.4193 60.1923 48.8046 59.9974Z" fill="#3B5998"/>
<path d="M30.2268 64.2987C29.0884 64.4482 27.9888 64.8809 27.03 63.9445C26.6128 63.5372 26.3268 63.0765 26.4908 62.4931C26.6799 61.8202 27.116 61.2829 27.8112 61.1302C28.7526 60.9235 29.7225 60.8509 30.6711 60.6724C32.8016 60.2715 34.9276 59.8464 37.0533 59.4203C38.621 59.1061 40.2035 59.1388 41.7195 59.5546C43.4402 60.0266 45.1134 60.6834 46.7855 61.3173C47.4768 61.5794 47.8522 62.4815 47.6817 63.1563C47.5084 63.8419 46.7829 64.3694 46.0811 64.4539C45.03 64.5804 44.1535 64.0637 43.2068 63.7927C41.8765 63.4119 40.5531 62.9051 39.1941 62.7605C38.1992 62.6547 37.1494 63.0322 36.1281 63.2168C34.1811 63.5686 32.237 63.9366 30.2268 64.2987Z" fill="#3B5998"/>
<path d="M44.1945 45.2256C43.6029 44.6297 43.1476 44.1044 43.3205 43.1639C43.5619 41.8505 45.699 41.4838 46.5442 42.2144C47.8353 43.3304 49.1396 44.4569 50.7708 45.0289C52.7383 45.7187 54.7294 46.3555 56.742 46.8963C57.8848 47.2034 58.5358 47.7241 58.5351 48.735C58.5344 49.6742 57.8899 50.421 56.9529 50.3737C56.0418 50.3277 55.1061 50.2129 54.2399 49.9408C52.1362 49.2801 50.0189 48.6208 48.0013 47.7433C46.7911 47.2169 45.7584 46.2808 44.6453 45.5299C44.5092 45.438 44.3689 45.3525 44.1945 45.2256Z" fill="#3B5998"/>
<path d="M60.1443 4.10444C62.2811 4.08181 64.4628 4.10319 66.6966 4.1478C64.5623 4.1635 62.3758 4.15597 60.1443 4.10444Z" fill="#201D1D" fill-opacity="0.87"/>
</g>
<defs>
<clipPath id="clip0_8_2191">
<rect width="74" height="74" fill="white"/>
</clipPath>
</defs>
</svg>
