<svg width="27" height="21" viewBox="0 0 27 21" fill="none" xmlns="http://www.w3.org/2000/svg">
<path d="M25.9219 2.73438L24.8828 1.69531L15.2578 11.3203C14.0547 12.5234 12.0312 12.5234 10.8281 11.3203L1.20313 1.75L0.164062 2.78906L7.32812 9.95313L0.164062 17.1172L1.20313 18.1563L8.36719 10.9922L9.78906 12.4141C10.6641 13.2891 11.8125 13.7813 13.0156 13.7813C14.2188 13.7813 15.3672 13.2891 16.2422 12.4141L17.6641 10.9922L24.8281 18.1563L25.8672 17.1172L18.7031 9.95313L25.9219 2.73438Z" fill="black" fill-opacity="0.67"/>
<path d="M23.8984 20.0156H2.29688C1.03907 20.0156 0 18.9766 0 17.7187V2.29687C0 1.03906 1.03907 0 2.29688 0H23.8984C25.1562 0 26.1953 1.03906 26.1953 2.29687V17.7187C26.1953 18.9766 25.1562 20.0156 23.8984 20.0156ZM2.24219 1.47656C1.80469 1.47656 1.47657 1.80468 1.47657 2.24218V17.6641C1.47657 18.1016 1.80469 18.4297 2.24219 18.4297H23.8438C24.2813 18.4297 24.6094 18.1016 24.6094 17.6641V2.24218C24.6094 1.80468 24.2813 1.47656 23.8438 1.47656H2.24219Z" fill="black" fill-opacity="0.67"/>
</svg>
