<svg width="27" height="27" viewBox="0 0 27 27" fill="none" xmlns="http://www.w3.org/2000/svg">
<g clip-path="url(#clip0_20_2905)">
<path d="M13.5 27C20.9558 27 27 20.9558 27 13.5C27 6.04416 20.9558 0 13.5 0C6.04416 0 0 6.04416 0 13.5C0 20.9558 6.04416 27 13.5 27Z" fill="white"/>
<path d="M18.5625 27V16.875H21.9375L22.7812 12.6562H18.5625V10.9688C18.5625 9.28125 19.4079 8.4375 21.0938 8.4375H22.7812V4.21875C21.9375 4.21875 20.8912 4.21875 19.4062 4.21875C16.3055 4.21875 14.3438 6.64959 14.3438 10.125V12.6562H10.9688V16.875H14.3438V27H18.5625Z" fill="#3B5998"/>
</g>
<defs>
<clipPath id="clip0_20_2905">
<rect width="27" height="27" fill="white"/>
</clipPath>
</defs>
</svg>
