<svg width="304" height="87" viewBox="0 0 304 87" fill="none" xmlns="http://www.w3.org/2000/svg">
<g clip-path="url(#clip0_33_25)">
<path d="M62.4721 6.51266C64.0404 7.32096 65.4591 8.04925 66.8777 8.77755C66.8474 8.98486 66.817 9.19217 66.7867 9.39947C52.0408 4.66236 38.7589 6.68435 27.6947 17.8509C19.8715 25.7464 17.0965 35.4522 17.921 46.4242C19.1946 63.3738 38.6849 85.162 66.9277 75.9578C65.4273 76.7713 63.976 77.6956 62.4189 78.3818C39.182 88.6231 12.2698 74.7349 7.32163 49.9729C2.44401 25.5642 21.5136 2.86118 46.6975 3.05024C52.1591 3.09125 57.347 4.23883 62.4721 6.51266Z" fill="#FEFBFB"/>
<path d="M38.976 69.6996C38.6337 69.4259 38.4275 69.2345 37.9399 68.7818C53.1777 73.183 65.6621 69.909 73.7628 56.2524C79.7381 46.179 79.1213 35.5485 72.1776 26.0288C63.6431 14.3284 51.8896 11.8565 38.1701 15.4592C40.2263 14.4987 42.2127 13.3336 44.3498 12.6098C62.4882 6.46673 81.5822 17.2158 85.7475 35.8466C89.7796 53.8816 76.491 71.963 58.0607 73.7241C51.2716 74.3728 45.0234 73.0248 38.976 69.6996Z" fill="#FEF9FA"/>
<path d="M51.3653 26.9932C56.5562 26.4068 60.7317 28.1374 64.5632 31.6728C63.242 32.8227 61.967 33.9325 60.6215 35.1036C58.5414 33.2119 56.0487 31.9963 52.9416 32.0285C49.8771 32.0603 47.4622 33.2552 46.1702 35.8985C45.2248 37.8328 43.9489 38.1736 42.1174 38.0186C41.102 37.9327 40.0732 38.0032 39.0144 38.0032C40.0775 32.2502 44.8489 28.0104 51.3653 26.9932Z" fill="#FEF8FA"/>
<path d="M47.6917 56.9792C43.5409 55.26 40.8507 52.4207 39.3582 48.1071C41.2619 48.1071 42.9649 48.0075 44.6448 48.1603C45.2453 48.2149 45.9052 48.7802 46.3419 49.2816C50.1367 53.6386 54.5201 54.1836 59.3764 50.9791C59.8965 50.6359 61.0135 50.6958 61.5832 51.0281C62.6341 51.6411 63.4844 52.595 64.41 53.3998C60.6791 57.8293 53.407 59.1368 47.6917 56.9792Z" fill="#FEF9FA"/>
<path d="M28.6066 41.9384C28.6066 38.4565 28.6066 35.1975 28.6066 31.8091C30.4172 31.8091 32.102 31.8091 33.959 31.8091C33.959 38.6221 33.959 45.49 33.959 52.5386C32.3366 52.5386 30.6033 52.5386 28.6066 52.5386C28.6066 49.0951 28.6066 45.6283 28.6066 41.9384Z" fill="white"/>
</g>
<path d="M183.692 60.1918C178.651 60.1918 173.611 60.1918 168.134 60.1918C172.85 45.5013 177.461 31.1405 182.088 16.729C194.403 16.729 206.607 16.729 218.992 16.729C218.992 19.485 218.992 22.2262 218.992 25.2699C209.735 25.2699 200.423 25.2699 190.968 25.2699C190.968 28.2347 190.968 30.902 190.968 33.828C197.44 33.828 203.834 33.828 210.476 33.828C210.476 36.7684 210.476 39.4561 210.27 42.3797C208.587 42.6619 207.109 42.708 205.429 42.7196C200.5 42.6851 195.773 42.6851 190.998 42.6851C190.998 45.6894 190.998 48.4219 190.998 51.2106C192.773 51.2106 194.372 51.2106 196.174 51.2526C203.133 51.2663 209.889 51.2379 216.645 51.2096C217.368 51.2732 218.091 51.3368 218.991 51.416C218.991 54.2448 218.991 57.0359 218.991 60.1359C214.781 60.1359 210.637 60.1359 206.096 60.1353C204.51 60.1616 203.321 60.1884 202.132 60.2153C200.219 60.1858 198.305 60.1563 195.992 60.1263C194.113 60.1554 192.634 60.1851 191.155 60.2148C189.242 60.1852 187.328 60.1556 185.051 60.124C184.355 60.1453 184.023 60.1685 183.692 60.1918Z" fill="white"/>
<path d="M128.815 27.6162C132.456 33.532 136.022 39.3072 139.588 45.0824C139.719 45.0497 139.85 45.017 139.982 44.9843C139.982 35.6591 139.982 26.3338 139.982 16.823C142.997 16.823 145.788 16.823 148.701 16.823C148.701 31.1787 148.701 45.5038 148.701 60.0919C145.451 60.0919 142.327 60.1705 139.214 60.0203C138.645 59.9928 137.986 59.1172 137.597 58.4908C132.385 50.097 127.216 41.6768 122.028 33.2676C121.664 32.6767 121.243 32.1205 120.485 31.0211C120.485 41.0581 120.485 50.4572 120.485 59.98C117.527 59.98 114.788 59.98 111.899 59.98C111.899 45.5624 111.899 31.2432 111.899 16.6416C115.058 16.6416 118.179 16.5803 121.293 16.7004C121.829 16.721 122.481 17.4194 122.83 17.9649C124.842 21.1084 126.778 24.3002 128.815 27.6162Z" fill="white"/>
<path d="M243.2 16.5942C244.737 16.5958 246.071 16.6261 247.603 16.6284C249.297 17.0525 250.793 17.5046 252.452 17.9855C253.347 18.5727 254.08 19.1312 254.939 19.7429C257.627 22.5213 259.512 25.5338 259.251 29.7569C256.716 29.7569 254.253 29.8144 251.797 29.7035C251.36 29.6838 250.937 28.9819 250.536 28.5671C249.572 27.5694 248.625 26.5551 247.323 25.4939C245.492 25.4435 244.01 25.4467 242.325 25.4171C239.625 25.426 237.129 25.4677 234.478 25.5054C233.382 26.4672 232.441 27.4329 231.394 28.5313C231.046 31.9215 232.396 33.5581 235.697 33.8087C236.933 33.8193 237.975 33.7964 239.018 33.7736C242.082 33.8707 245.168 33.7695 248.206 34.106C254.642 34.8191 259.225 40.1543 259.468 46.9121C259.679 52.7659 255.146 58.8814 249.127 59.5768C243.736 60.1996 238.164 60.198 232.77 59.5936C226.759 58.92 222.309 52.9363 222.626 47.095C225.373 47.095 228.13 47.095 231.046 47.095C231.677 50.7276 234.262 51.4677 237.521 51.3304C240.22 51.2168 242.929 51.34 245.632 51.2975C248.753 51.2484 250.714 49.5662 250.721 47.0175C250.728 44.4315 248.797 42.7169 245.702 42.6686C242.633 42.6207 239.55 42.8267 236.497 42.6002C234.208 42.4304 231.956 41.7517 229.431 41.1694C228.369 40.5046 227.562 39.9699 226.697 39.3182C226.254 38.8487 225.87 38.4962 225.433 38.0072C224.826 37.088 224.272 36.3054 223.693 35.3636C223.341 34.2947 223.014 33.3849 222.694 32.3018C222.567 31.0689 222.434 30.0094 222.302 28.9499C223.855 21.6784 227.685 17.4759 233.604 16.7947C235.765 16.546 237.969 16.6746 240.154 16.6389C241.101 16.6234 242.049 16.6278 243.2 16.5942Z" fill="white"/>
<path d="M286.306 39.9459C286.306 46.7344 286.306 53.303 286.306 59.9755C283.28 59.9755 280.544 59.9755 277.58 59.9755C277.58 48.4569 277.58 37.0667 277.58 25.4195C272.795 25.4195 268.231 25.4195 263.52 25.4195C263.52 22.415 263.52 19.6673 263.52 16.7769C275.745 16.7769 287.92 16.7769 300.266 16.7769C300.266 19.4971 300.266 22.2407 300.266 25.2683C295.755 25.2683 291.195 25.2683 286.306 25.2683C286.306 30.2701 286.306 34.9981 286.306 39.9459Z" fill="white"/>
<path d="M97.5945 26.3132C97.5945 23.0308 97.5945 19.9682 97.5945 16.7725C100.516 16.7725 103.262 16.7725 106.181 16.7725C106.181 31.0775 106.181 45.3952 106.181 59.9099C103.434 59.9099 100.643 59.9099 97.5945 59.9099C97.5945 48.7554 97.5945 37.6442 97.5945 26.3132Z" fill="white"/>
<path d="M166.42 37.5974C165.529 40.3238 164.699 42.886 163.695 45.9882C160.474 35.9415 157.416 26.403 154.312 16.7236C160.635 16.7236 166.746 16.7236 173.081 16.7236C170.856 23.7071 168.669 30.5702 166.42 37.5974Z" fill="white"/>
<path d="M215.622 79.4381C216.491 78.9749 217.177 78.5124 217.864 78.0499C217.148 77.6905 216.465 77.1852 215.707 77.0108C214.87 76.8183 213.948 77.0228 213.089 76.8887C211.199 76.5936 210.086 75.4502 209.93 73.5161C209.783 71.6779 210.65 70.4347 212.364 69.7969C216.114 68.4017 219.579 69.7585 220.451 73.4552C219.368 73.1402 218.54 72.8052 217.681 72.6704C216.224 72.4417 214.748 72.2826 213.276 72.241C213.037 72.2343 212.55 73.0131 212.593 73.3792C212.636 73.7376 213.175 74.2517 213.557 74.3127C214.559 74.4727 215.599 74.3711 216.615 74.4668C218.948 74.6865 220.461 76.1779 220.472 78.195C220.483 80.1992 218.966 81.7942 216.629 81.9137C215.121 81.9908 213.477 82.0063 212.114 81.4775C211.103 81.0848 210.447 79.7733 209.632 78.871C209.799 78.6277 209.966 78.3844 210.133 78.141C211.902 78.5737 213.671 79.0063 215.622 79.4381Z" fill="white"/>
<path d="M249.468 80.6413C248.824 81.3322 248.182 81.8316 247.54 82.331C247.378 82.1537 247.216 81.9763 247.053 81.7989C247.053 77.81 247.053 73.8211 247.053 69.65C247.76 69.65 248.493 69.65 249.437 69.65C249.437 71.1737 249.437 72.6095 249.437 74.2318C251.275 74.2318 252.91 74.2318 254.808 74.2318C254.877 72.7828 254.95 71.289 255.031 69.6124C255.799 69.5585 256.484 69.5103 257.336 69.4504C257.336 73.6026 257.336 77.598 257.336 81.7867C256.647 81.7867 255.911 81.7867 255.028 81.7867C254.957 80.207 254.889 78.7087 254.817 77.099C253.013 77.099 251.373 77.099 249.47 77.099C249.47 78.2971 249.47 79.3735 249.468 80.6413Z" fill="white"/>
<path d="M178.491 81.2892C177.7 81.5711 176.909 81.8531 175.559 82.3342C176.058 80.5205 176.387 79.3245 176.831 77.8401C177.44 75.864 177.935 74.1762 178.43 72.4884C179.197 71.0208 179.244 68.6948 182.135 69.712C182.594 70.6253 182.861 71.3579 183.128 72.0904C184.072 75.2678 185.015 78.4452 185.969 81.6539C184.466 82.2908 183.467 82.0203 182.582 80.4903C181.004 80.7017 179.375 79.4153 178.491 81.2892ZM180.643 74.3846C180.326 75.4403 180.009 76.4961 179.624 77.7818C180.623 77.7163 181.278 77.6733 182.212 77.6121C181.684 76.2792 181.267 75.2276 180.643 74.3846Z" fill="white"/>
<path d="M149.466 70.2029C150.044 70.6291 150.468 70.9816 150.975 71.4035C150.395 72.0108 149.95 72.4769 149.423 73.0288C148.936 72.7941 148.506 72.5509 148.051 72.3742C146.321 71.703 144.621 72.0614 143.847 73.6347C143.29 74.7677 143.167 76.5557 143.68 77.6683C144.382 79.192 146.156 79.8598 147.824 79.052C149.318 78.328 150.119 78.7667 150.824 80.0112C148.942 82.1004 145.951 82.5238 143.5 81.078C140.95 79.5739 139.83 76.4141 140.86 73.6284C141.867 70.9053 144.697 69.1367 147.43 69.5718C148.071 69.6739 148.686 69.9391 149.466 70.2029Z" fill="white"/>
<defs>
<clipPath id="clip0_33_25">
<rect width="95" height="87" fill="white"/>
</clipPath>
</defs>
</svg>
