<svg width="95" height="87" viewBox="0 0 95 87" fill="none" xmlns="http://www.w3.org/2000/svg">
<g clip-path="url(#clip0_12_2227)">
<path d="M62.4721 6.5127C64.0404 7.321 65.4591 8.0493 66.8777 8.77759C66.8474 8.9849 66.817 9.19221 66.7867 9.39952C52.0408 4.66241 38.7589 6.6844 27.6947 17.8509C19.8715 25.7465 17.0965 35.4522 17.921 46.4242C19.1946 63.3739 38.6849 85.162 66.9277 75.9578C65.4273 76.7714 63.976 77.6956 62.4189 78.3819C39.182 88.6232 12.2698 74.7349 7.32163 49.973C2.44401 25.5642 21.5136 2.86122 46.6975 3.05029C52.1591 3.09129 57.347 4.23888 62.4721 6.5127Z" fill="#FFC107"/>
<path d="M38.976 69.6996C38.6337 69.4259 38.4275 69.2345 37.9399 68.7818C53.1777 73.183 65.6621 69.909 73.7628 56.2524C79.7381 46.179 79.1213 35.5485 72.1776 26.0288C63.6431 14.3284 51.8896 11.8565 38.1701 15.4592C40.2263 14.4987 42.2127 13.3336 44.3498 12.6098C62.4882 6.46673 81.5822 17.2158 85.7475 35.8466C89.7796 53.8816 76.491 71.963 58.0607 73.7241C51.2716 74.3728 45.0234 73.0248 38.976 69.6996Z" fill="#FFC107"/>
<path d="M51.3653 26.9933C56.5562 26.4069 60.7317 28.1374 64.5632 31.6728C63.242 32.8228 61.967 33.9325 60.6215 35.1036C58.5414 33.212 56.0487 31.9963 52.9416 32.0286C49.8771 32.0604 47.4622 33.2553 46.1702 35.8986C45.2248 37.8329 43.9489 38.1737 42.1174 38.0187C41.102 37.9328 40.0732 38.0033 39.0144 38.0033C40.0775 32.2502 44.8489 28.0105 51.3653 26.9933Z" fill="#FFC107"/>
<path d="M47.6917 56.9793C43.5409 55.2601 40.8507 52.4208 39.3582 48.1072C41.2619 48.1072 42.9649 48.0076 44.6448 48.1604C45.2453 48.215 45.9052 48.7803 46.3419 49.2817C50.1367 53.6387 54.5201 54.1837 59.3764 50.9792C59.8965 50.636 61.0135 50.6959 61.5832 51.0282C62.6341 51.6412 63.4844 52.5951 64.41 53.3999C60.6791 57.8294 53.407 59.1369 47.6917 56.9793Z" fill="#FFC107"/>
<path d="M28.6066 41.9384C28.6066 38.4565 28.6066 35.1975 28.6066 31.8091C30.4173 31.8091 32.1021 31.8091 33.9591 31.8091C33.9591 38.6221 33.9591 45.49 33.9591 52.5386C32.3367 52.5386 30.6034 52.5386 28.6066 52.5386C28.6066 49.0951 28.6066 45.6283 28.6066 41.9384Z" fill="#FFC107"/>
</g>
<defs>
<clipPath id="clip0_12_2227">
<rect width="95" height="87" fill="white"/>
</clipPath>
</defs>
</svg>
