<svg width="24" height="20" viewBox="0 0 24 20" fill="none" xmlns="http://www.w3.org/2000/svg">
<g clip-path="url(#clip0_8_2187)">
<path d="M17.94 14.95C16.2306 16.0358 14.1491 16.6374 12 16.6667C5 16.6667 1 10 1 10C2.24389 8.06825 3.96914 6.38051 6.06 5.05M9.9 3.53333C10.5883 3.39907 11.2931 3.33195 12 3.33333C19 3.33333 23 10 23 10C22.393 10.9463 21.6691 11.8373 20.84 12.6583M14.12 11.7667C13.8454 12.0123 13.5141 12.2093 13.1462 12.3459C12.7782 12.4826 12.3809 12.556 11.9781 12.562C11.5753 12.5679 11.1752 12.5061 10.8016 12.3804C10.4281 12.2547 10.0887 12.0675 9.80385 11.8301C9.51897 11.5927 9.29439 11.31 9.14351 10.9987C8.99262 10.6874 8.91853 10.3539 8.92563 10.0183C8.93274 9.68258 9.02091 9.35154 9.18488 9.04487C9.34884 8.73821 9.58525 8.46221 9.88 8.23333" stroke="#201D1D" stroke-opacity="0.87" stroke-width="2" stroke-linecap="round" stroke-linejoin="round"/>
<path d="M1 0.833332L23 19.1667" stroke="#201D1D" stroke-opacity="0.87" stroke-width="2" stroke-linecap="round" stroke-linejoin="round"/>
</g>
<defs>
<clipPath id="clip0_8_2187">
<rect width="24" height="20" fill="white"/>
</clipPath>
</defs>
</svg>
